<svg width="250" height="262" viewBox="0 0 250 262" fill="none" xmlns="http://www.w3.org/2000/svg">
<path d="M85.1285 89.6C77.6463 92.0086 70.4839 95.3161 63.7985 99.45C57.8274 103.218 52.3874 107.769 47.6235 112.98C23.6935 139.205 18.2985 180.61 38.1535 210.695C49.1035 227.29 70.7085 244.295 91.6935 242.47C106.533 241.18 120.288 233.625 135.433 234.97C151.033 236.37 165.183 238.47 179.698 230.545C195.243 222.07 205.018 205.27 208.398 187.89C212.588 166.32 209.633 141.305 199.983 121.55C181.018 82.755 125.423 76.305 85.1285 89.6Z" fill="#f1efe9"/>
<path opacity="0.8" d="M85.1285 89.6C77.6463 92.0086 70.4839 95.3161 63.7985 99.45C57.8274 103.218 52.3874 107.769 47.6235 112.98C23.6935 139.205 18.2985 180.61 38.1535 210.695C49.1035 227.29 70.7085 244.295 91.6935 242.47C106.533 241.18 120.288 233.625 135.433 234.97C151.033 236.37 165.183 238.47 179.698 230.545C195.243 222.07 205.018 205.27 208.398 187.89C212.588 166.32 209.633 141.305 199.983 121.55C181.018 82.755 125.423 76.305 85.1285 89.6Z" fill="#f1efe9"/>
<path d="M26.9934 205.02H207.673" stroke="#263238" stroke-linecap="round" stroke-linejoin="round"/>
<path opacity="0.28" d="M108.638 233.715L126.158 243.465L126.823 249.465L148.493 234.795L149.448 226.26L108.638 233.715Z" fill="black"/>
<path d="M128.578 240.425L108.638 233.715L130.068 222.35L149.448 226.26L128.578 240.425Z" fill="white"/>
<mask id="mask0_1_314" style="mask-type:luminance" maskUnits="userSpaceOnUse" x="108" y="222" width="42" height="19">
<path d="M128.578 240.425L108.638 233.715L130.068 222.35L149.448 226.26L128.578 240.425Z" fill="white"/>
</mask>
<g mask="url(#mask0_1_314)">
<path opacity="0.15" d="M128.578 240.425L108.638 233.715L130.068 222.35L149.448 226.26L128.578 240.425Z" fill="black"/>
</g>
<path d="M128.578 240.425L108.638 233.715L130.068 222.35L149.448 226.26L128.578 240.425Z" stroke="#263238" stroke-linecap="round" stroke-linejoin="round"/>
<path d="M132.493 227.565L126.578 226.13L119.803 229.72L125.783 231.295L132.493 227.565Z" stroke="#263238" stroke-linecap="round" stroke-linejoin="round"/>
<path d="M136.218 225.705L118.888 235.02L128.683 238.375L144.823 227.425L136.218 225.705Z" fill="#263238"/>
<path d="M137.893 213.965L128.578 240.425L149.448 226.26L157.648 204.085L137.893 213.965Z" fill="white"/>
<mask id="mask1_1_314" style="mask-type:luminance" maskUnits="userSpaceOnUse" x="128" y="204" width="30" height="37">
<path d="M137.893 213.965L128.578 240.425L149.448 226.26L157.648 204.085L137.893 213.965Z" fill="white"/>
</mask>
<g mask="url(#mask1_1_314)">
<path opacity="0.15" d="M137.893 213.965L128.578 240.425L149.448 226.26L157.648 204.085L137.893 213.965Z" fill="black"/>
</g>
<path d="M137.893 213.965L128.578 240.425L149.448 226.26L157.648 204.085L137.893 213.965Z" stroke="#263238" stroke-linecap="round" stroke-linejoin="round"/>
<path d="M70.7134 240.955L83.2734 258.87L103.408 251.485L89.5534 235.97L70.7134 240.955Z" fill="white" stroke="#263238" stroke-linecap="round" stroke-linejoin="round"/>
<path d="M98.9735 236.155L116.888 251.115L92.1385 260.905L77.1785 241.88L98.9735 236.155Z" fill="white" stroke="#263238" stroke-linecap="round" stroke-linejoin="round"/>
<path d="M164.993 69H125.608V119.815H164.993V69Z" fill="#cdb6e5"/>
<path opacity="0.5" d="M164.993 69H125.608V119.815H164.993V69Z" fill="white"/>
<path d="M159.738 75.775H130.858V113.04H159.738V75.775Z" fill="white"/>
<path d="M203.003 102.795H177.078V136.25H203.003V102.795Z" fill="#cdb6e5"/>
<path opacity="0.5" d="M203.003 102.795H177.078V136.25H203.003V102.795Z" fill="white"/>
<path d="M199.549 107.255H180.534V131.79H199.549V107.255Z" fill="white"/>
<path d="M112.498 102.795H86.5735V136.25H112.498V102.795Z" fill="#cdb6e5"/>
<path opacity="0.5" d="M112.498 102.795H86.5735V136.25H112.498V102.795Z" fill="white"/>
<path d="M109.049 107.255H90.0335V131.79H109.049V107.255Z" fill="white"/>
<path opacity="0.28" d="M203.188 205.935H133.423V207.72H203.188V205.935Z" fill="black"/>
<path d="M182.013 156.095H189.513L195.408 169.905H187.908L182.013 156.095Z" fill="#263238" stroke="#263238" stroke-linecap="round" stroke-linejoin="round"/>
<path d="M191.983 152.425H180.448L173.798 169.905H185.333L191.983 152.425Z" fill="white" stroke="#263238" stroke-linecap="round" stroke-linejoin="round"/>
<path d="M189.798 154.525H181.033L175.983 167.805H184.748L189.798 154.525Z" fill="white" stroke="#263238" stroke-linecap="round" stroke-linejoin="round"/>
<path d="M162.508 142.245C162.508 142.245 166.213 140.69 162.383 140.59C158.553 140.49 153.638 145.955 153.988 145.43C154.338 144.905 155.608 141.155 153.243 143.66C150.878 146.165 149.243 154.045 149.243 154.045C149.537 152.425 149.674 150.781 149.653 149.135C149.578 146.705 147.953 140.56 145.478 140.085C143.858 139.77 144.543 141.65 145.208 142.995C144.338 141.635 142.623 139.595 139.913 138.995C135.743 138.085 132.723 142.195 130.163 144.215C127.603 146.235 131.303 144.685 134.163 143.86C137.023 143.035 137.163 144.685 137.163 144.685C137.163 144.685 133.428 144.355 133.388 146.075C133.348 147.795 141.388 143.87 143.463 148.87C145.538 153.87 145.798 159.845 145.798 159.845L148.443 158.925C148.786 158.267 149.069 157.579 149.288 156.87C149.503 156.02 152.378 155.195 154.568 154.09C156.758 152.985 153.338 152.52 153.823 152.315C154.308 152.11 159.078 152.2 161.323 151.645C163.568 151.09 157.188 149.015 157.188 149.015C157.188 149.015 168.688 151.2 168.688 148.375C168.688 145.55 162.508 142.245 162.508 142.245Z" fill="#dfdcdc"/>
<path d="M143.298 148.21C140.853 146.29 141.203 148.91 141.203 148.91C139.375 148.006 137.327 147.642 135.298 147.86C131.798 148.21 132.853 148.91 132.853 148.91C132.853 148.91 131.453 148.385 129.008 151.53C126.563 154.675 126.913 156.95 127.783 156.25C128.653 155.55 134.078 152.58 134.078 152.58C134.078 152.58 129.883 155.55 132.153 156.425C133.858 157.08 137.428 155.575 139.108 154.78C138.108 155.325 136.913 156.19 138.798 156.425C141.593 156.775 144.738 160.425 144.738 160.425L145.613 158.85C145.613 158.85 145.763 150.135 143.298 148.21Z" fill="#dfdcdc"/>
<path d="M150.603 170.06H141.793L140.693 158.35H151.703L150.603 170.06Z" fill="#263238" stroke="#263238" stroke-linecap="round" stroke-linejoin="round"/>
<path d="M136.748 207.13H135.353L134.653 177.245H137.448L136.748 207.13Z" fill="#263238" stroke="#263238" stroke-linecap="round" stroke-linejoin="round"/>
<path d="M200.893 207.13H199.493L198.793 177.245H201.593L200.893 207.13Z" fill="#263238" stroke="#263238" stroke-linecap="round" stroke-linejoin="round"/>
<path d="M202.638 170.95H133.603V179.515H146.648L147.498 179.69C151.693 180.565 154.663 183.19 161.308 182.835C164.943 182.645 166.998 181.515 168.123 180.525C169.248 181.525 171.303 182.645 174.938 182.835C181.578 183.185 184.553 180.565 188.748 179.69L189.598 179.515H202.638V170.95Z" fill="white" stroke="#263238" stroke-linecap="round" stroke-linejoin="round"/>
<path d="M202.638 170.95H133.603V172.97H202.638V170.95Z" fill="#263238" stroke="#263238" stroke-linecap="round" stroke-linejoin="round"/>
<path d="M204.793 169.69H131.328V171.565H204.793V169.69Z" fill="white" stroke="#263238" stroke-linecap="round" stroke-linejoin="round"/>
<path opacity="0.28" d="M81.2335 230.24C103.979 230.24 122.418 224.923 122.418 218.365C122.418 211.807 103.979 206.49 81.2335 206.49C58.4876 206.49 40.0485 211.807 40.0485 218.365C40.0485 224.923 58.4876 230.24 81.2335 230.24Z" fill="black"/>
<path d="M131.933 199.615C131.933 199.615 129.508 195.885 121.868 196.82C114.228 197.755 97.8285 200.91 91.2985 202.035C84.7685 203.16 74.7185 210.41 72.4835 215.08C70.2485 219.75 71.9235 222.535 86.0885 223.28C100.253 224.025 119.798 212.47 125.968 208.91C132.138 205.35 131.558 201.475 131.933 199.615Z" fill="#263238" stroke="#263238" stroke-linecap="round" stroke-linejoin="round"/>
<path d="M93.6934 147.175C93.6934 147.175 89.7334 154.8 88.2684 156.27C87.4887 157.124 86.5352 157.802 85.4718 158.258C84.4084 158.713 83.2599 158.935 82.1034 158.91C79.1734 158.91 68.7384 157.52 65.2184 164.27C61.6984 171.02 60.8334 191.035 60.9834 192.21C61.1334 193.385 52.0334 201.16 52.3284 210.71C52.6234 220.26 62.7434 225.67 76.9734 223.62C91.2034 221.57 94.8684 211 94.8684 204.84C94.8684 198.68 97.9484 195.305 101.323 188.84C104.698 182.375 109.683 175.64 108.068 169.915C106.453 164.19 100.298 161.55 98.2434 160.815C96.1884 160.08 102.058 153.315 100.588 149.96C99.1184 146.605 96.1884 145.265 93.6934 147.175Z" fill="#cdb6e5"/>
<mask id="mask2_1_314" style="mask-type:luminance" maskUnits="userSpaceOnUse" x="52" y="146" width="57" height="79">
<path d="M93.6934 147.175C93.6934 147.175 89.7334 154.8 88.2684 156.27C87.4887 157.124 86.5352 157.802 85.4718 158.258C84.4084 158.713 83.2599 158.935 82.1034 158.91C79.1734 158.91 68.7384 157.52 65.2184 164.27C61.6984 171.02 60.8334 191.035 60.9834 192.21C61.1334 193.385 52.0334 201.16 52.3284 210.71C52.6234 220.26 62.7434 225.67 76.9734 223.62C91.2034 221.57 94.8684 211 94.8684 204.84C94.8684 198.68 97.9484 195.305 101.323 188.84C104.698 182.375 109.683 175.64 108.068 169.915C106.453 164.19 100.298 161.55 98.2434 160.815C96.1884 160.08 102.058 153.315 100.588 149.96C99.1184 146.605 96.1884 145.265 93.6934 147.175Z" fill="white"/>
</mask>
<g mask="url(#mask2_1_314)">
<path opacity="0.13" d="M93.2185 189.56C86.9735 191.875 81.8135 189.715 74.9485 187.71C68.0835 185.705 71.0135 180.77 71.0135 175.685C71.0135 170.6 65.0135 177.535 65.0135 177.535L61.6585 181.065C61.242 184.766 61.02 188.486 60.9935 192.21C61.1235 193.26 53.8685 199.585 52.5435 207.71C55.914 208.102 59.3052 208.291 62.6985 208.275C76.8085 208.275 93.6635 201.03 95.3085 197.635C96.8535 194.44 99.3785 186.635 99.6735 185.7C99.5135 186.09 98.5985 187.565 93.2185 189.56Z" fill="black"/>
</g>
<path d="M93.6934 147.175C93.6934 147.175 89.7334 154.8 88.2684 156.27C87.4887 157.124 86.5352 157.802 85.4718 158.258C84.4084 158.713 83.2599 158.935 82.1034 158.91C79.1734 158.91 68.7384 157.52 65.2184 164.27C61.6984 171.02 60.8334 191.035 60.9834 192.21C61.1334 193.385 52.0334 201.16 52.3284 210.71C52.6234 220.26 62.7434 225.67 76.9734 223.62C91.2034 221.57 94.8684 211 94.8684 204.84C94.8684 198.68 97.9484 195.305 101.323 188.84C104.698 182.375 109.683 175.64 108.068 169.915C106.453 164.19 100.298 161.55 98.2434 160.815C96.1884 160.08 102.058 153.315 100.588 149.96C99.1184 146.605 96.1884 145.265 93.6934 147.175Z" stroke="#263238" stroke-linecap="round" stroke-linejoin="round"/>
<path d="M103.523 176.955C103.523 176.955 100.148 179.155 99.8535 181.205C99.5585 183.255 100.293 187.66 97.5085 190.01C94.7235 192.36 92.6685 192.355 92.6685 192.355" stroke="#263238" stroke-linecap="round" stroke-linejoin="round"/>
<path d="M67.6584 184.22C67.6584 184.22 67.6584 189.51 73.9684 189.915" stroke="#263238" stroke-linecap="round" stroke-linejoin="round"/>
<path d="M86.9985 176.685C87.9211 178.864 88.6684 181.112 89.2335 183.41" stroke="#263238" stroke-linecap="round" stroke-linejoin="round"/>
<path d="M95.0834 202.17C95.8284 197.56 98.4684 194.3 101.323 188.835C101.773 187.97 102.258 187.1 102.748 186.225C100.078 187.27 99.6384 186.59 99.6384 186.59C98.3734 189.54 96.6834 190.665 96.6834 190.665L92.0884 203.31L95.0834 202.17Z" fill="white" stroke="#263238" stroke-linecap="round" stroke-linejoin="round"/>
<path d="M54.0634 202.795C52.8879 205.261 52.2943 207.964 52.3284 210.695C52.6184 220.23 62.7434 225.655 76.9734 223.605C91.2034 221.555 94.8684 210.985 94.8684 204.825C94.8593 202.932 95.186 201.053 95.8334 199.275C69.0634 205.26 58.2984 204.265 54.0634 202.795Z" fill="#263238" stroke="#263238" stroke-linecap="round" stroke-linejoin="round"/>
<path d="M84.7635 191.74L81.0985 183.74C81.0709 183.68 81.0318 183.627 80.9835 183.582C80.9351 183.537 80.8785 183.503 80.8167 183.48C80.692 183.434 80.5541 183.439 80.4335 183.495C80.3128 183.551 80.2192 183.652 80.1732 183.777C80.1273 183.901 80.1328 184.039 80.1885 184.16L83.8585 192.13L84.7635 191.74Z" fill="white" stroke="#263238" stroke-linecap="round" stroke-linejoin="round"/>
<path d="M83.8585 192.155L84.7435 192.885L84.7635 191.74L83.8585 192.155Z" stroke="#263238" stroke-linecap="round" stroke-linejoin="round"/>
<path d="M80.4335 183.52C80.3736 183.547 80.3198 183.586 80.275 183.635C80.2303 183.683 80.1956 183.74 80.1728 183.802C80.15 183.863 80.1397 183.929 80.1424 183.995C80.1451 184.061 80.1607 184.125 80.1885 184.185L80.5585 184.99L81.4685 184.575L81.0985 183.765C81.071 183.705 81.032 183.651 80.9837 183.607C80.9353 183.562 80.8787 183.527 80.8169 183.504C80.7551 183.482 80.6894 183.471 80.6236 183.474C80.5578 183.477 80.4932 183.492 80.4335 183.52Z" fill="white" stroke="#263238" stroke-linecap="round" stroke-linejoin="round"/>
<path d="M79.4635 159.79C77.5554 159.132 75.5244 158.909 73.5191 159.138C71.5137 159.366 69.5848 160.04 67.8735 161.11C62.0085 164.775 56.7935 175.67 54.5935 179.485C52.3935 183.3 45.0935 199.615 46.7685 199.985C47.6385 200.18 75.0635 194.985 77.4135 194.85C79.7635 194.715 82.9835 193.235 82.9835 193.235C82.9835 193.235 84.4535 194.85 85.1885 194.115C85.9235 193.38 83.8635 189.57 82.8385 188.395C81.8135 187.22 80.4935 186.78 79.7585 187.37C79.0235 187.96 74.4785 192.21 74.4785 192.21L56.8285 191.6L71.3985 172.55" fill="#cdb6e5"/>
<mask id="mask3_1_314" style="mask-type:luminance" maskUnits="userSpaceOnUse" x="46" y="159" width="40" height="41">
<path d="M79.4635 159.79C77.5554 159.132 75.5244 158.909 73.5191 159.138C71.5137 159.366 69.5848 160.04 67.8735 161.11C62.0085 164.775 56.7935 175.67 54.5935 179.485C52.3935 183.3 45.0935 199.615 46.7685 199.985C47.6385 200.18 75.0635 194.985 77.4135 194.85C79.7635 194.715 82.9835 193.235 82.9835 193.235C82.9835 193.235 84.4535 194.85 85.1885 194.115C85.9235 193.38 83.8635 189.57 82.8385 188.395C81.8135 187.22 80.4935 186.78 79.7585 187.37C79.0235 187.96 74.4785 192.21 74.4785 192.21L56.8285 191.6L71.3985 172.55" fill="white"/>
</mask>
<g mask="url(#mask3_1_314)">
<path opacity="0.13" d="M81.7985 189.715C79.5585 187.84 77.9585 190.77 76.1485 192.25C74.3385 193.73 71.2185 193.565 61.6885 193.565C52.1585 193.565 51.8235 193.895 51.0035 194.385C50.1835 194.875 52.6485 187.485 58.7285 180.58C64.8085 173.675 68.5885 167.93 68.5885 163.49C68.5885 162.06 68.0885 161.49 67.4235 161.4C61.7335 165.32 56.7235 175.77 54.5785 179.485C52.3785 183.3 45.0785 199.615 46.7535 199.985C47.6235 200.18 75.0485 194.985 77.3985 194.85C79.7485 194.715 82.9685 193.235 82.9685 193.235C83.1785 193.456 83.4059 193.66 83.6485 193.845C83.8835 192.41 83.2335 190.91 81.7985 189.715Z" fill="black"/>
</g>
<path d="M79.4635 159.79C77.5554 159.132 75.5244 158.909 73.5191 159.138C71.5137 159.366 69.5848 160.04 67.8735 161.11C62.0085 164.775 56.7935 175.67 54.5935 179.485C52.3935 183.3 45.0935 199.615 46.7685 199.985C47.6385 200.18 75.0635 194.985 77.4135 194.85C79.7635 194.715 82.9835 193.235 82.9835 193.235C82.9835 193.235 84.4535 194.85 85.1885 194.115C85.9235 193.38 83.8635 189.57 82.8385 188.395C81.8135 187.22 80.4935 186.78 79.7585 187.37C79.0235 187.96 74.4785 192.21 74.4785 192.21L56.8285 191.6L71.3985 172.55" stroke="#263238" stroke-linecap="round" stroke-linejoin="round"/>
<path d="M82.9834 193.235C82.9834 193.235 84.4534 194.85 85.1884 194.115C85.9234 193.38 83.8634 189.57 82.8384 188.395C81.8134 187.22 80.4934 186.78 79.7584 187.37C79.0234 187.96 74.4784 192.21 74.4784 192.21L56.8284 191.6L61.2434 185.825C58.3373 185.158 55.6206 183.84 53.2984 181.97C50.3934 187.86 45.3434 199.67 46.7684 199.97C47.6384 200.165 75.0634 194.97 77.4134 194.835C79.7634 194.7 82.9834 193.235 82.9834 193.235Z" fill="white"/>
<mask id="mask4_1_314" style="mask-type:luminance" maskUnits="userSpaceOnUse" x="46" y="181" width="40" height="19">
<path d="M82.9834 193.235C82.9834 193.235 84.4534 194.85 85.1884 194.115C85.9234 193.38 83.8634 189.57 82.8384 188.395C81.8134 187.22 80.4934 186.78 79.7584 187.37C79.0234 187.96 74.4784 192.21 74.4784 192.21L56.8284 191.6L61.2434 185.825C58.3373 185.158 55.6206 183.84 53.2984 181.97C50.3934 187.86 45.3434 199.67 46.7684 199.97C47.6384 200.165 75.0634 194.97 77.4134 194.835C79.7634 194.7 82.9834 193.235 82.9834 193.235Z" fill="white"/>
</mask>
<g mask="url(#mask4_1_314)">
<path d="M81.7984 189.715C79.5584 187.84 77.9584 190.77 76.1484 192.25C74.3384 193.73 71.2184 193.565 61.6884 193.565C52.1584 193.565 51.8234 193.895 51.0034 194.385C50.3134 194.8 51.9484 189.63 56.1134 183.885C55.1134 183.342 54.166 182.708 53.2834 181.99C50.3784 187.88 45.3284 199.69 46.7534 199.99C47.6234 200.185 75.0484 194.99 77.3984 194.855C79.7484 194.72 82.9684 193.24 82.9684 193.24C83.1784 193.461 83.4058 193.665 83.6484 193.85C83.8834 192.41 83.2334 190.91 81.7984 189.715Z" fill="#dfdcdc"/>
<path opacity="0.7" d="M81.7984 189.715C79.5584 187.84 77.9584 190.77 76.1484 192.25C74.3384 193.73 71.2184 193.565 61.6884 193.565C52.1584 193.565 51.8234 193.895 51.0034 194.385C50.3134 194.8 51.9484 189.63 56.1134 183.885C55.1134 183.342 54.166 182.708 53.2834 181.99C50.3784 187.88 45.3284 199.69 46.7534 199.99C47.6234 200.185 75.0484 194.99 77.3984 194.855C79.7484 194.72 82.9684 193.24 82.9684 193.24C83.1784 193.461 83.4058 193.665 83.6484 193.85C83.8834 192.41 83.2334 190.91 81.7984 189.715Z" fill="white"/>
</g>
<path d="M82.9834 193.235C82.9834 193.235 84.4534 194.85 85.1884 194.115C85.9234 193.38 83.8634 189.57 82.8384 188.395C81.8134 187.22 80.4934 186.78 79.7584 187.37C79.0234 187.96 74.4784 192.21 74.4784 192.21L56.8284 191.6L61.2434 185.825C58.3373 185.158 55.6206 183.84 53.2984 181.97C50.3934 187.86 45.3434 199.67 46.7684 199.97C47.6384 200.165 75.0634 194.97 77.4134 194.835C79.7634 194.7 82.9834 193.235 82.9834 193.235Z" stroke="#263238" stroke-linecap="round" stroke-linejoin="round"/>
<path d="M82.1034 192.21L70.2234 204.09L88.9984 206.44L99.4134 197.49L82.1034 192.21Z" fill="white"/>
<mask id="mask5_1_314" style="mask-type:luminance" maskUnits="userSpaceOnUse" x="70" y="192" width="30" height="15">
<path d="M82.1034 192.21L70.2234 204.09L88.9984 206.44L99.4134 197.49L82.1034 192.21Z" fill="white"/>
</mask>
<g mask="url(#mask5_1_314)">
<path opacity="0.36" d="M82.1034 192.21L70.2234 204.09L88.9984 206.44L99.4134 197.49L82.1034 192.21Z" fill="black"/>
</g>
<path d="M82.1034 192.21L70.2234 204.09L88.9984 206.44L99.4134 197.49L82.1034 192.21Z" stroke="#263238" stroke-linecap="round" stroke-linejoin="round"/>
<path d="M81.8134 189.715L82.1034 192.21L70.2234 204.09L69.6384 202.77L81.8134 189.715Z" fill="white" stroke="#263238" stroke-linecap="round" stroke-linejoin="round"/>
<path d="M82.1035 192.21L99.4135 197.49L100.298 195.73L81.8135 189.715L82.1035 192.21Z" fill="white" stroke="#263238" stroke-linecap="round" stroke-linejoin="round"/>
<path d="M94.9684 202.51C94.9684 202.51 92.0084 202.865 92.0884 203.31C92.1684 203.755 94.5884 203.665 95.1234 203.665C95.6584 203.665 96.5234 202.41 94.9684 202.51Z" fill="white" stroke="#263238" stroke-linecap="round" stroke-linejoin="round"/>
<path d="M96.0135 201.345C96.0135 201.345 92.2835 201.74 92.3785 202.23C92.4735 202.72 95.5235 202.62 96.2085 202.62C96.8935 202.62 97.9735 201.245 96.0135 201.345Z" fill="white" stroke="#263238" stroke-linecap="round" stroke-linejoin="round"/>
<path d="M97.2985 200.165C97.2985 200.165 93.5685 200.56 93.6635 201.05C93.7585 201.54 96.8085 201.445 97.4935 201.445C98.1785 201.445 99.2535 200.07 97.2985 200.165Z" fill="white" stroke="#263238" stroke-linecap="round" stroke-linejoin="round"/>
<path d="M97.4835 198.99C97.4835 198.99 93.7535 199.38 93.8535 199.875C93.9535 200.37 96.9935 200.265 97.6785 200.265C98.3635 200.265 99.4485 198.91 97.4835 198.99Z" fill="white" stroke="#263238" stroke-linecap="round" stroke-linejoin="round"/>
<path d="M53.1285 212.66C53.1285 212.66 51.4535 208.56 56.6735 205.02C61.8935 201.48 81.4285 199.24 86.0885 201.105C90.7485 202.97 108.453 217.505 108.453 217.505L106.214 219.74C106.214 219.74 92.6085 220.11 86.8335 218.62C81.0585 217.13 78.7985 216.41 78.7985 216.41C78.7985 216.41 73.9535 223.305 67.2435 223.49" fill="#263238"/>
<path d="M53.1285 212.66C53.1285 212.66 51.4535 208.56 56.6735 205.02C61.8935 201.48 81.4285 199.24 86.0885 201.105C90.7485 202.97 108.453 217.505 108.453 217.505L106.214 219.74C106.214 219.74 92.6085 220.11 86.8335 218.62C81.0585 217.13 78.7985 216.41 78.7985 216.41C78.7985 216.41 73.9535 223.305 67.2435 223.49" stroke="#263238" stroke-linecap="round" stroke-linejoin="round"/>
<path d="M106.403 221.045C110.335 222.635 114.477 223.646 118.698 224.045C125.408 224.605 127.458 219.2 127.458 217.545C127.458 215.89 124.663 216.24 121.868 216.61C119.073 216.98 112.178 217.355 110.498 217.17C108.818 216.985 104.353 217.69 106.403 221.045Z" fill="white" stroke="#263238" stroke-linecap="round" stroke-linejoin="round"/>
<path d="M122.613 199.055C122.613 199.055 114.613 198.865 110.313 203.155C106.013 207.445 96.5235 219.365 94.2885 221.605C92.0535 223.845 83.1085 223.28 81.2435 223.105C79.3785 222.93 77.5135 221.605 74.9085 222.73C72.3035 223.855 68.9435 225.73 68.3835 228.135C67.8235 230.54 67.4535 231.49 68.5685 231.675C69.6835 231.86 75.6535 230.91 78.7985 230.91C81.9435 230.91 89.6085 230.35 94.0835 229.05C98.5585 227.75 111.413 220.1 116.443 217.12C121.473 214.14 130.443 208.735 131.913 203.705C133.383 198.675 129.488 197.555 127.253 197.925" fill="#263238"/>
<path d="M122.613 199.055C122.613 199.055 114.613 198.865 110.313 203.155C106.013 207.445 96.5235 219.365 94.2885 221.605C92.0535 223.845 83.1085 223.28 81.2435 223.105C79.3785 222.93 77.5135 221.605 74.9085 222.73C72.3035 223.855 68.9435 225.73 68.3835 228.135C67.8235 230.54 67.4535 231.49 68.5685 231.675C69.6835 231.86 75.6535 230.91 78.7985 230.91C81.9435 230.91 89.6085 230.35 94.0835 229.05C98.5585 227.75 111.413 220.1 116.443 217.12C121.473 214.14 130.443 208.735 131.913 203.705C133.383 198.675 129.488 197.555 127.253 197.925" stroke="#263238" stroke-linecap="round" stroke-linejoin="round"/>
<path d="M96.6735 220.44C96.6735 220.44 107.423 204.44 112.923 201.44C118.423 198.44 124.423 198.94 124.423 198.94" stroke="white" stroke-linecap="round" stroke-linejoin="round"/>
<path d="M92.5335 222.545C89.0935 223.65 82.7735 223.245 81.2435 223.095C79.3785 222.91 77.5135 221.595 74.9085 222.72C72.3035 223.845 68.9435 225.72 68.3835 228.125C67.8235 230.53 67.4535 231.48 68.5685 231.665C69.6835 231.85 75.6535 230.91 78.7985 230.91C81.9435 230.91 89.6085 230.35 94.0835 229.05C95.3481 228.64 96.5813 228.138 97.7735 227.55C96.4935 225.215 94.1585 223.515 92.5335 222.545Z" fill="white" stroke="#263238" stroke-linecap="round" stroke-linejoin="round"/>
<path d="M86.8335 223.095C86.8335 223.095 90.1885 224.595 90.9335 226.26C91.6785 227.925 92.2385 229.43 92.2385 229.99C92.2385 230.55 98.3885 229.06 100.238 227.195C102.088 225.33 97.2385 220.3 95.5785 220.3C93.9185 220.3 93.5285 220.86 91.4785 221.415C89.4285 221.97 86.4585 221.605 86.8335 223.095Z" fill="white" stroke="#263238" stroke-linecap="round" stroke-linejoin="round"/>
<path d="M78.7984 216.41C78.7984 216.41 74.6984 214.36 74.5134 211.75" stroke="white" stroke-linecap="round" stroke-linejoin="round"/>
<path d="M71.1735 222.44C74.4252 221.055 77.4572 219.202 80.1735 216.94C80.1735 216.94 88.1735 219.44 93.4235 219.44" stroke="white" stroke-linecap="round" stroke-linejoin="round"/>
<path d="M100.974 162.03C100.093 161.562 99.1806 161.156 98.2435 160.815C96.1885 160.085 102.058 153.315 100.588 149.96C99.1185 146.605 96.1885 145.265 93.6935 147.175C93.6935 147.175 89.7335 154.8 88.2685 156.27C87.4888 157.124 86.5352 157.802 85.4719 158.258C84.4085 158.713 83.26 158.935 82.1035 158.91C81.5481 158.917 80.9936 158.958 80.4435 159.035C80.1635 162.285 80.3885 170.07 88.5585 172.26C96.2535 174.32 99.5435 167.97 100.974 162.03Z" fill="white"/>
<mask id="mask6_1_314" style="mask-type:luminance" maskUnits="userSpaceOnUse" x="80" y="146" width="21" height="27">
<path d="M100.974 162.03C100.093 161.562 99.1806 161.156 98.2435 160.815C96.1885 160.085 102.058 153.315 100.588 149.96C99.1185 146.605 96.1885 145.265 93.6935 147.175C93.6935 147.175 89.7335 154.8 88.2685 156.27C87.4888 157.124 86.5352 157.802 85.4719 158.258C84.4085 158.713 83.26 158.935 82.1035 158.91C81.5481 158.917 80.9936 158.958 80.4435 159.035C80.1635 162.285 80.3885 170.07 88.5585 172.26C96.2535 174.32 99.5435 167.97 100.974 162.03Z" fill="white"/>
</mask>
<g mask="url(#mask6_1_314)">
<path d="M93.6936 147.175C93.6936 147.175 89.7336 154.8 88.2686 156.27C87.4889 157.124 86.5353 157.802 85.472 158.258C84.4086 158.713 83.2601 158.935 82.1036 158.91C81.5482 158.917 80.9938 158.958 80.4436 159.035C80.4086 159.445 80.3836 159.93 80.3786 160.47C81.1986 162.595 82.7786 165.365 85.5336 165.97C90.1336 166.97 93.4186 163.67 94.0786 162.52C94.6686 161.48 97.2786 150.915 96.5786 146.34C96.0663 146.279 95.5471 146.322 95.0516 146.465C94.556 146.609 94.0943 146.85 93.6936 147.175Z" fill="#dfdcdc"/>
<path opacity="0.7" d="M93.6936 147.175C93.6936 147.175 89.7336 154.8 88.2686 156.27C87.4889 157.124 86.5353 157.802 85.472 158.258C84.4086 158.713 83.2601 158.935 82.1036 158.91C81.5482 158.917 80.9938 158.958 80.4436 159.035C80.4086 159.445 80.3836 159.93 80.3786 160.47C81.1986 162.595 82.7786 165.365 85.5336 165.97C90.1336 166.97 93.4186 163.67 94.0786 162.52C94.6686 161.48 97.2786 150.915 96.5786 146.34C96.0663 146.279 95.5471 146.322 95.0516 146.465C94.556 146.609 94.0943 146.85 93.6936 147.175Z" fill="white"/>
</g>
<path d="M100.974 162.03C100.093 161.562 99.1806 161.156 98.2435 160.815C96.1885 160.085 102.058 153.315 100.588 149.96C99.1185 146.605 96.1885 145.265 93.6935 147.175C93.6935 147.175 89.7335 154.8 88.2685 156.27C87.4888 157.124 86.5352 157.802 85.4719 158.258C84.4085 158.713 83.26 158.935 82.1035 158.91C81.5481 158.917 80.9936 158.958 80.4435 159.035C80.1635 162.285 80.3885 170.07 88.5585 172.26C96.2535 174.32 99.5435 167.97 100.974 162.03Z" stroke="#263238" stroke-linecap="round" stroke-linejoin="round"/>
<path d="M93.5985 163.635C93.5985 163.635 91.7885 164.485 91.1985 167.135" stroke="#263238" stroke-linecap="round" stroke-linejoin="round"/>
<path d="M98.0935 138.08C98.0935 138.08 98.9735 135.145 96.9235 134.12C94.8735 133.095 86.9485 136.17 85.1885 141.305C83.4285 146.44 90.9085 148.495 95.0135 145.56C99.1185 142.625 98.3885 138.665 98.3885 138.665L98.0935 138.08Z" fill="#263238" stroke="#263238" stroke-linecap="round" stroke-linejoin="round"/>
<path d="M85.1885 141.305C85.1885 141.305 83.5335 145.745 86.5885 147.985C89.6435 150.225 94.1185 145.95 94.1185 145.95" stroke="#263238" stroke-linecap="round" stroke-linejoin="round"/>
<path d="M93.8435 152.16C93.8435 152.16 90.4685 148.495 92.7985 141.91C95.1285 135.325 101.298 133.555 108.658 133.955C117.908 134.455 118.763 144.11 118.473 146.455C118.29 147.894 117.996 149.317 117.593 150.71C117.593 150.71 121.258 155.255 119.203 158.045C117.148 160.835 109.963 159.51 107.173 155.695C104.383 151.88 96.0285 153.055 95.5885 153.35C95.1485 153.645 93.8435 152.16 93.8435 152.16Z" fill="#263238" stroke="#263238" stroke-linecap="round" stroke-linejoin="round"/>
<path d="M112.923 158.34C112.504 158.165 112.129 157.896 111.828 157.555" stroke="white" stroke-linecap="round" stroke-linejoin="round"/>
<path d="M110.798 150.225C110.798 150.225 117.918 155.925 115.683 157.755C115.469 157.931 115.238 158.085 114.993 158.215" stroke="white" stroke-linecap="round" stroke-linejoin="round"/>
<path d="M109.798 148.595C112.184 148.533 114.552 149.02 116.718 150.02" stroke="white" stroke-linecap="round" stroke-linejoin="round"/>
<path d="M109.793 145.95L108.163 138.215" stroke="white" stroke-linecap="round" stroke-linejoin="round"/>
<path d="M95.8484 145.87C95.5734 145.775 95.2984 145.67 95.0134 145.56" stroke="white" stroke-linecap="round" stroke-linejoin="round"/>
<path d="M109.183 144.935C109.183 144.935 105.183 147.995 98.4335 146.59" stroke="white" stroke-linecap="round" stroke-linejoin="round"/>
<path d="M108.368 141.88C108.368 141.88 105.928 143.1 101.868 143.1" stroke="white" stroke-linecap="round" stroke-linejoin="round"/>
<path d="M92.3734 152.455C92.3734 152.455 91.9334 156.56 92.6684 159.35C93.4034 162.14 93.5484 166.54 96.1684 166.98C98.7884 167.42 107.463 162.575 109.078 160.815C110.215 159.633 110.846 158.055 110.838 156.415C110.838 155.535 109.373 149.375 109.373 149.375C106.903 149.935 104.397 150.328 101.873 150.55C99.1419 150.814 96.386 150.462 93.8084 149.52C93.8084 149.52 91.7984 150.84 92.3734 152.455Z" fill="white"/>
<mask id="mask7_1_314" style="mask-type:luminance" maskUnits="userSpaceOnUse" x="92" y="149" width="19" height="19">
<path d="M92.3734 152.455C92.3734 152.455 91.9334 156.56 92.6684 159.35C93.4034 162.14 93.5484 166.54 96.1684 166.98C98.7884 167.42 107.463 162.575 109.078 160.815C110.215 159.633 110.846 158.055 110.838 156.415C110.838 155.535 109.373 149.375 109.373 149.375C106.903 149.935 104.397 150.328 101.873 150.55C99.1419 150.814 96.386 150.462 93.8084 149.52C93.8084 149.52 91.7984 150.84 92.3734 152.455Z" fill="white"/>
</mask>
<g mask="url(#mask7_1_314)">
<path d="M93.8434 149.52C93.8434 149.52 91.7884 150.84 92.3734 152.455C92.3734 152.455 91.9334 156.56 92.6684 159.35C93.2684 161.625 93.4734 164.975 94.9684 166.35C93.7334 163.645 93.0984 157.085 96.2134 154.265C99.6634 151.145 108.213 149.665 108.213 149.665V149.615C106.948 149.87 104.748 150.255 101.923 150.53C99.1885 150.802 96.4272 150.457 93.8434 149.52Z" fill="#dfdcdc"/>
<path opacity="0.7" d="M93.8434 149.52C93.8434 149.52 91.7884 150.84 92.3734 152.455C92.3734 152.455 91.9334 156.56 92.6684 159.35C93.2684 161.625 93.4734 164.975 94.9684 166.35C93.7334 163.645 93.0984 157.085 96.2134 154.265C99.6634 151.145 108.213 149.665 108.213 149.665V149.615C106.948 149.87 104.748 150.255 101.923 150.53C99.1885 150.802 96.4272 150.457 93.8434 149.52Z" fill="white"/>
</g>
<path d="M92.3734 152.455C92.3734 152.455 91.9334 156.56 92.6684 159.35C93.4034 162.14 93.5484 166.54 96.1684 166.98C98.7884 167.42 107.463 162.575 109.078 160.815C110.215 159.633 110.846 158.055 110.838 156.415C110.838 155.535 109.373 149.375 109.373 149.375C106.903 149.935 104.397 150.328 101.873 150.55C99.1419 150.814 96.386 150.462 93.8084 149.52C93.8084 149.52 91.7984 150.84 92.3734 152.455Z" stroke="#263238" stroke-linecap="round" stroke-linejoin="round"/>
<path d="M94.1335 150.99C94.1335 150.99 94.2835 147.32 92.5185 147.32C90.7535 147.32 89.5885 153.32 92.9635 154.07" fill="white"/>
<mask id="mask8_1_314" style="mask-type:luminance" maskUnits="userSpaceOnUse" x="90" y="147" width="5" height="8">
<path d="M94.1335 150.99C94.1335 150.99 94.2835 147.32 92.5185 147.32C90.7535 147.32 89.5885 153.32 92.9635 154.07" fill="white"/>
</mask>
<g mask="url(#mask8_1_314)">
<path d="M94.1335 150.99C94.1335 150.99 94.2835 147.32 92.5185 147.32C90.7535 147.32 89.5885 153.32 92.9635 154.07" fill="#dfdcdc"/>
<path opacity="0.7" d="M94.1335 150.99C94.1335 150.99 94.2835 147.32 92.5185 147.32C90.7535 147.32 89.5885 153.32 92.9635 154.07" fill="white"/>
</g>
<path d="M94.1335 150.99C94.1335 150.99 94.2835 147.32 92.5185 147.32C90.7535 147.32 89.5885 153.32 92.9635 154.07" stroke="#263238" stroke-linecap="round" stroke-linejoin="round"/>
<path d="M105.298 157.445C105.298 157.445 101.798 163.015 101.043 163.015C100.288 163.015 99.8685 161.845 99.8685 161.845" stroke="#263238" stroke-linecap="round" stroke-linejoin="round"/>
<path d="M98.6835 155.24C98.7497 155.891 99.0576 156.493 99.5463 156.929C100.035 157.364 100.669 157.6 101.323 157.59" stroke="#263238" stroke-linecap="round" stroke-linejoin="round"/>
<path d="M104.988 159.79C104.988 159.79 105.138 161.695 107.628 161.11" stroke="#263238" stroke-linecap="round" stroke-linejoin="round"/>
<path d="M103.963 155.535C103.963 155.535 102.938 152.895 100.588 152.75" stroke="#263238" stroke-width="1.5" stroke-linecap="round" stroke-linejoin="round"/>
<path d="M109.098 158.615C108.068 156.855 106.018 157.295 106.018 157.295" stroke="#263238" stroke-width="1.5" stroke-linecap="round" stroke-linejoin="round"/>
<path d="M96.9335 162.475C96.9699 162.862 97.1309 163.227 97.3924 163.514C97.6539 163.802 98.0017 163.997 98.3835 164.07" stroke="#263238" stroke-linecap="round" stroke-linejoin="round"/>
<path d="M107.353 164.475C107.353 164.475 107.758 166.71 110.198 162.235C112.638 157.76 109.393 149.375 109.393 149.375" stroke="#263238" stroke-linecap="round" stroke-linejoin="round"/>
<path opacity="0.13" d="M99.6635 185.72C99.6765 185.691 99.6865 185.661 99.6935 185.63L99.6635 185.72Z" fill="black"/>
</svg>
