<?xml version="1.0" encoding="UTF-8"?>
<!DOCTYPE svg PUBLIC "-//W3C//DTD SVG 1.1//EN" "http://www.w3.org/Graphics/SVG/1.1/DTD/svg11.dtd">
<svg xmlns="http://www.w3.org/2000/svg" version="1.1" width="512px" height="582px" style="shape-rendering:geometricPrecision; text-rendering:geometricPrecision; image-rendering:optimizeQuality; fill-rule:evenodd; clip-rule:evenodd" xmlns:xlink="http://www.w3.org/1999/xlink">
<g><path style="opacity:0.995" fill="#4b4b4b" d="M 240.5,69.5 C 278.189,65.6711 310.355,77.0045 337,103.5C 356.603,126.652 364.27,153.319 360,183.5C 357.082,206.512 354.082,229.512 351,252.5C 344.459,289.813 323.959,315.98 289.5,331C 254.053,342.226 221.72,336.56 192.5,314C 176.174,298.523 165.674,279.69 161,257.5C 156.842,229.568 153.175,201.568 150,173.5C 149.851,127.665 170.684,95.4986 212.5,77C 221.772,73.7339 231.105,71.2339 240.5,69.5 Z"/></g>
<g><path style="opacity:0.995" fill="#4b4b4b" d="M 289.5,581.5 C 266.833,581.5 244.167,581.5 221.5,581.5C 182.593,579.55 144.926,571.384 108.5,557C 87.2739,547.639 68.7739,534.473 53,517.5C 47.9962,509.129 46.3295,500.129 48,490.5C 49.4505,480.464 51.1172,470.464 53,460.5C 58.4876,442.682 69.3209,429.182 85.5,420C 112.167,406.667 138.833,393.333 165.5,380C 168.295,378.207 170.795,376.04 173,373.5C 190.244,392.542 211.411,405.042 236.5,411C 265.363,415.866 291.697,409.866 315.5,393C 323.295,386.873 330.795,380.373 338,373.5C 340.205,376.04 342.705,378.207 345.5,380C 373.958,394.062 402.291,408.396 430.5,423C 445.605,433.368 455.105,447.535 459,465.5C 461.934,478.361 463.267,491.361 463,504.5C 462.121,509.136 460.455,513.469 458,517.5C 435.891,540.648 409.391,556.815 378.5,566C 349.261,574.428 319.595,579.594 289.5,581.5 Z"/></g>
</svg>
